# xmcd
#
# Track frame offsets:
#	150
#	17421
#	37310
#	54651
#	69879
#	88280
#	103555
#	117489
#	139001
#	160875
#	174034
#	194765
#	215289
#	235763
#	249508
#
# Disc length: 3556 seconds
# Revision: 0
# Processed by: cddbd v1.5.2PL0 Copyright (c) Steve Scherf et al.
# Submitted via: dBpowerAMP V12.0
#
DISCID=cd0de20f
DTITLE=Melissa Etheridge - Memphis Rock and Soul
DYEAR=2016
DGENRE=Blues
TTITLE0=Memphis Train
TTITLE1=Respect Yourself (People Stand Up)
TTITLE2=Who's Making Love
TTITLE3=Hold on, I'm Coming
TTITLE4=I've Been Loving You Too Long
TTITLE5=Any Ohter Way
TTITLE6=I'm a Lover
TTITLE7=Rock Me Baby
TTITLE8=I Forgot To Be Your Lover
TTITLE9=Wait a Minute
TTITLE10=Born Under A Bad Sign
TTITLE11=I've Got Dreams To Remember
TTITLE12=Your Good Thing
TTITLE13=I know A Place
TTITLE14=These Arms Of Mine
EXTD=
EXTT0=
EXTT1=
EXTT2=
EXTT3=
EXTT4=
EXTT5=
EXTT6=
EXTT7=
EXTT8=
EXTT9=
EXTT10=
EXTT11=
EXTT12=
EXTT13=
EXTT14=
PLAYORDER=
